<?xml version="1.0" encoding="utf-8"?>
<!-- Generator: Adobe Illustrator 22.0.1, SVG Export Plug-In . SVG Version: 6.00 Build 0)  -->
<svg version="1.1" id="Layer_1" xmlns="http://www.w3.org/2000/svg" xmlns:xlink="http://www.w3.org/1999/xlink" x="0px" y="0px"
	 viewBox="0 0 24 24" style="enable-background:new 0 0 24 24;" xml:space="preserve">
<style type="text/css">
	.st0{fill:#FFFFFF;}
</style>
<g id="black">
	<g id="slice" transform="translate(-700.000000, -600.000000)">
	</g>
	<g id="behance" transform="translate(12.000000, 18.000000)">
		<path class="st0" d="M3.7-13v1.5h6.2V-13H3.7z M-12-13.8l7.2,0.1c0,0,3.9-0.2,4.5,2.9c0.5,3.1-2,3.9-2,3.9s3.1,0.7,2.7,4.3
			s-4.7,3.7-4.7,3.7H-12V-13.8z M-8.7-7.8l3,0c0.2,0,0.7,0,1.1-0.1c0.2,0,0.5-0.2,0.8-0.4c0.1-0.1,0.3-0.3,0.4-0.6
			c0.1-0.3,0.1-0.6,0.1-0.7c0-0.2,0-0.4-0.1-0.6s-0.2-0.4-0.4-0.5c-0.2-0.1-0.4-0.3-0.6-0.3s-0.6-0.1-0.9-0.1l-3.2,0V-7.8z
			 M-8.7-1.6l3.2,0c0.2,0,0.8,0,1.2-0.1c0.2,0,0.6-0.2,0.8-0.4c0.1-0.1,0.3-0.4,0.4-0.7C-3-3.1-2.9-3.5-2.9-3.6c0-0.3,0-0.5-0.1-0.7
			c-0.1-0.2-0.2-0.4-0.4-0.6c-0.2-0.2-0.4-0.3-0.7-0.4c-0.3-0.1-0.6-0.1-1-0.1l-3.5,0V-1.6z M4.3-3.6c0,0.1,0,2.2,1.8,2.7
			c2,0.6,2.9-1.1,3-1.3h2.7c-0.1,0.3-1.2,4.7-7,3.3C1.1,0.2,1.3-4.1,1.3-4.4c0-0.3,0-2.1,1.5-3.8s3.5-1.7,3.9-1.7s2.6,0,3.9,1.5
			C12.3-6.5,12-3.5,12-3.5L4.3-3.6z M9-5.4c0-0.3-0.1-0.6-0.2-0.9C8.7-6.6,8.5-6.9,8.3-7.1C8.1-7.3,7.9-7.5,7.6-7.6
			C7.3-7.7,7-7.8,6.7-7.8c-0.3,0-0.6,0.1-0.9,0.2S5.3-7.3,5.1-7.1C4.9-6.9,4.8-6.6,4.6-6.3C4.5-6.1,4.4-5.8,4.4-5.4H9z"/>
	</g>
</g>
</svg>
